<?xml version="1.0" encoding="UTF-8" standalone="no"?>
<!DOCTYPE svg PUBLIC "-//W3C//DTD SVG 1.1//EN"
 "http://www.w3.org/Graphics/SVG/1.1/DTD/svg11.dtd">
<!-- Generated by graphviz version 2.40.1 (20161225.0304)
 -->
<!-- Title: name Pages: 1 -->
<svg width="607pt" height="239pt"
 viewBox="0.00 0.00 606.50 239.00" xmlns="http://www.w3.org/2000/svg" xmlns:xlink="http://www.w3.org/1999/xlink">
<g id="graph0" class="graph" transform="scale(1 1) rotate(0) translate(4 235)">
<title>name</title>
<!-- directors -->
<g id="node1" class="node">
<title>directors</title>
<polygon fill="#e6e6fa" stroke="transparent" points="89,-70.5 89,-93.5 212,-93.5 212,-70.5 89,-70.5"/>
<polygon fill="none" stroke="#000000" points="89,-70.5 89,-93.5 212,-93.5 212,-70.5 89,-70.5"/>
<text text-anchor="start" x="120" y="-78.9" font-family="Helvetica,sans-Serif" font-weight="bold" font-size="12.00" fill="#000000">directors</text>
<polygon fill="#ffffff" stroke="transparent" points="89,-51.5 89,-70.5 159,-70.5 159,-51.5 89,-51.5"/>
<polygon fill="none" stroke="#000000" points="89,-51.5 89,-70.5 159,-70.5 159,-51.5 89,-51.5"/>
<text text-anchor="start" x="92" y="-57.9" font-family="Helvetica,sans-Serif" font-size="12.00" fill="#000000">id</text>
<polygon fill="#ffffff" stroke="transparent" points="159,-51.5 159,-70.5 212,-70.5 212,-51.5 159,-51.5"/>
<polygon fill="none" stroke="#000000" points="159,-51.5 159,-70.5 212,-70.5 212,-51.5 159,-51.5"/>
<text text-anchor="start" x="162" y="-57.9" font-family="Helvetica,sans-Serif" font-size="12.00" fill="#000000">int</text>
<polygon fill="#ffffff" stroke="transparent" points="89,-32.5 89,-51.5 159,-51.5 159,-32.5 89,-32.5"/>
<polygon fill="none" stroke="#000000" points="89,-32.5 89,-51.5 159,-51.5 159,-32.5 89,-32.5"/>
<text text-anchor="start" x="92" y="-38.9" font-family="Helvetica,sans-Serif" font-size="12.00" fill="#000000">first_name</text>
<polygon fill="#ffffff" stroke="transparent" points="159,-32.5 159,-51.5 212,-51.5 212,-32.5 159,-32.5"/>
<polygon fill="none" stroke="#000000" points="159,-32.5 159,-51.5 212,-51.5 212,-32.5 159,-32.5"/>
<text text-anchor="start" x="162" y="-38.9" font-family="Helvetica,sans-Serif" font-size="12.00" fill="#000000">varchar</text>
<polygon fill="#ffffff" stroke="transparent" points="89,-13.5 89,-32.5 159,-32.5 159,-13.5 89,-13.5"/>
<polygon fill="none" stroke="#000000" points="89,-13.5 89,-32.5 159,-32.5 159,-13.5 89,-13.5"/>
<text text-anchor="start" x="92" y="-19.9" font-family="Helvetica,sans-Serif" font-size="12.00" fill="#000000">last_name</text>
<polygon fill="#ffffff" stroke="transparent" points="159,-13.5 159,-32.5 212,-32.5 212,-13.5 159,-13.5"/>
<polygon fill="none" stroke="#000000" points="159,-13.5 159,-32.5 212,-32.5 212,-13.5 159,-13.5"/>
<text text-anchor="start" x="162" y="-19.9" font-family="Helvetica,sans-Serif" font-size="12.00" fill="#000000">varchar</text>
</g>
<!-- directors_genres -->
<g id="node2" class="node">
<title>directors_genres</title>
<polygon fill="#e6e6fa" stroke="transparent" points="8,-204 8,-227 132,-227 132,-204 8,-204"/>
<polygon fill="none" stroke="#000000" points="8,-204 8,-227 132,-227 132,-204 8,-204"/>
<text text-anchor="start" x="13" y="-212.4" font-family="Helvetica,sans-Serif" font-weight="bold" font-size="12.00" fill="#000000">directors_genres</text>
<polygon fill="#ffffff" stroke="transparent" points="8,-185 8,-204 78,-204 78,-185 8,-185"/>
<polygon fill="none" stroke="#000000" points="8,-185 8,-204 78,-204 78,-185 8,-185"/>
<text text-anchor="start" x="11" y="-191.4" font-family="Helvetica,sans-Serif" font-size="12.00" fill="#000000">director_id</text>
<polygon fill="#ffffff" stroke="transparent" points="78,-185 78,-204 132,-204 132,-185 78,-185"/>
<polygon fill="none" stroke="#000000" points="78,-185 78,-204 132,-204 132,-185 78,-185"/>
<text text-anchor="start" x="81" y="-191.4" font-family="Helvetica,sans-Serif" font-size="12.00" fill="#000000">int</text>
<polygon fill="#ffffff" stroke="transparent" points="8,-166 8,-185 78,-185 78,-166 8,-166"/>
<polygon fill="none" stroke="#000000" points="8,-166 8,-185 78,-185 78,-166 8,-166"/>
<text text-anchor="start" x="11" y="-172.4" font-family="Helvetica,sans-Serif" font-size="12.00" fill="#000000">genre</text>
<polygon fill="#ffffff" stroke="transparent" points="78,-166 78,-185 132,-185 132,-166 78,-166"/>
<polygon fill="none" stroke="#000000" points="78,-166 78,-185 132,-185 132,-166 78,-166"/>
<text text-anchor="start" x="81" y="-172.4" font-family="Helvetica,sans-Serif" font-size="12.00" fill="#000000">varchar</text>
<polygon fill="#ffffff" stroke="transparent" points="8,-147 8,-166 78,-166 78,-147 8,-147"/>
<polygon fill="none" stroke="#000000" points="8,-147 8,-166 78,-166 78,-147 8,-147"/>
<text text-anchor="start" x="11" y="-153.4" font-family="Helvetica,sans-Serif" font-size="12.00" fill="#000000">prob</text>
<polygon fill="#ffffff" stroke="transparent" points="78,-147 78,-166 132,-166 132,-147 78,-147"/>
<polygon fill="none" stroke="#000000" points="78,-147 78,-166 132,-166 132,-147 78,-147"/>
<text text-anchor="start" x="81" y="-153.4" font-family="Helvetica,sans-Serif" font-size="12.00" fill="#000000">float</text>
</g>
<!-- directors_genres&#45;&gt;directors -->
<g id="edge1" class="edge">
<title>directors_genres&#45;&gt;directors</title>
<path fill="none" stroke="#000000" d="M110.25,-142.9171C110.25,-142.9171 110.25,-107.5366 110.25,-107.5366"/>
<polygon fill="#000000" stroke="#000000" points="113.7501,-107.5366 110.25,-97.5366 106.7501,-107.5366 113.7501,-107.5366"/>
</g>
<!-- movies_directors -->
<g id="node3" class="node">
<title>movies_directors</title>
<polygon fill="#e6e6fa" stroke="transparent" points="167,-194 167,-217 292,-217 292,-194 167,-194"/>
<polygon fill="none" stroke="#000000" points="167,-194 167,-217 292,-217 292,-194 167,-194"/>
<text text-anchor="start" x="172" y="-202.4" font-family="Helvetica,sans-Serif" font-weight="bold" font-size="12.00" fill="#000000">movies_directors</text>
<polygon fill="#ffffff" stroke="transparent" points="167,-175 167,-194 253,-194 253,-175 167,-175"/>
<polygon fill="none" stroke="#000000" points="167,-175 167,-194 253,-194 253,-175 167,-175"/>
<text text-anchor="start" x="170" y="-181.4" font-family="Helvetica,sans-Serif" font-size="12.00" fill="#000000">director_id</text>
<polygon fill="#ffffff" stroke="transparent" points="253,-175 253,-194 292,-194 292,-175 253,-175"/>
<polygon fill="none" stroke="#000000" points="253,-175 253,-194 292,-194 292,-175 253,-175"/>
<text text-anchor="start" x="256" y="-181.4" font-family="Helvetica,sans-Serif" font-size="12.00" fill="#000000">int</text>
<polygon fill="#ffffff" stroke="transparent" points="167,-156 167,-175 253,-175 253,-156 167,-156"/>
<polygon fill="none" stroke="#000000" points="167,-156 167,-175 253,-175 253,-156 167,-156"/>
<text text-anchor="start" x="170" y="-162.4" font-family="Helvetica,sans-Serif" font-size="12.00" fill="#000000">movie_id</text>
<polygon fill="#ffffff" stroke="transparent" points="253,-156 253,-175 292,-175 292,-156 253,-156"/>
<polygon fill="none" stroke="#000000" points="253,-156 253,-175 292,-175 292,-156 253,-156"/>
<text text-anchor="start" x="256" y="-162.4" font-family="Helvetica,sans-Serif" font-size="12.00" fill="#000000">int</text>
</g>
<!-- movies_directors&#45;&gt;directors -->
<g id="edge2" class="edge">
<title>movies_directors&#45;&gt;directors</title>
<path fill="none" stroke="#000000" d="M189,-152.2729C189,-152.2729 189,-107.635 189,-107.635"/>
<polygon fill="#000000" stroke="#000000" points="192.5001,-107.6349 189,-97.635 185.5001,-107.635 192.5001,-107.6349"/>
</g>
<!-- movies -->
<g id="node4" class="node">
<title>movies</title>
<polygon fill="#e6e6fa" stroke="transparent" points="335,-79.5 335,-102.5 429,-102.5 429,-79.5 335,-79.5"/>
<polygon fill="none" stroke="#000000" points="335,-79.5 335,-102.5 429,-102.5 429,-79.5 335,-79.5"/>
<text text-anchor="start" x="357.5" y="-87.9" font-family="Helvetica,sans-Serif" font-weight="bold" font-size="12.00" fill="#000000">movies</text>
<polygon fill="#ffffff" stroke="transparent" points="335,-60.5 335,-79.5 376,-79.5 376,-60.5 335,-60.5"/>
<polygon fill="none" stroke="#000000" points="335,-60.5 335,-79.5 376,-79.5 376,-60.5 335,-60.5"/>
<text text-anchor="start" x="338" y="-66.9" font-family="Helvetica,sans-Serif" font-size="12.00" fill="#000000">id</text>
<polygon fill="#ffffff" stroke="transparent" points="376,-60.5 376,-79.5 429,-79.5 429,-60.5 376,-60.5"/>
<polygon fill="none" stroke="#000000" points="376,-60.5 376,-79.5 429,-79.5 429,-60.5 376,-60.5"/>
<text text-anchor="start" x="379" y="-66.9" font-family="Helvetica,sans-Serif" font-size="12.00" fill="#000000">int</text>
<polygon fill="#ffffff" stroke="transparent" points="335,-41.5 335,-60.5 376,-60.5 376,-41.5 335,-41.5"/>
<polygon fill="none" stroke="#000000" points="335,-41.5 335,-60.5 376,-60.5 376,-41.5 335,-41.5"/>
<text text-anchor="start" x="338" y="-47.9" font-family="Helvetica,sans-Serif" font-size="12.00" fill="#000000">name</text>
<polygon fill="#ffffff" stroke="transparent" points="376,-41.5 376,-60.5 429,-60.5 429,-41.5 376,-41.5"/>
<polygon fill="none" stroke="#000000" points="376,-41.5 376,-60.5 429,-60.5 429,-41.5 376,-41.5"/>
<text text-anchor="start" x="379" y="-47.9" font-family="Helvetica,sans-Serif" font-size="12.00" fill="#000000">varchar</text>
<polygon fill="#ffffff" stroke="transparent" points="335,-22.5 335,-41.5 376,-41.5 376,-22.5 335,-22.5"/>
<polygon fill="none" stroke="#000000" points="335,-22.5 335,-41.5 376,-41.5 376,-22.5 335,-22.5"/>
<text text-anchor="start" x="338" y="-28.9" font-family="Helvetica,sans-Serif" font-size="12.00" fill="#000000">year</text>
<polygon fill="#ffffff" stroke="transparent" points="376,-22.5 376,-41.5 429,-41.5 429,-22.5 376,-22.5"/>
<polygon fill="none" stroke="#000000" points="376,-22.5 376,-41.5 429,-41.5 429,-22.5 376,-22.5"/>
<text text-anchor="start" x="379" y="-28.9" font-family="Helvetica,sans-Serif" font-size="12.00" fill="#000000">int</text>
<polygon fill="#ffffff" stroke="transparent" points="335,-3.5 335,-22.5 376,-22.5 376,-3.5 335,-3.5"/>
<polygon fill="none" stroke="#000000" points="335,-3.5 335,-22.5 376,-22.5 376,-3.5 335,-3.5"/>
<text text-anchor="start" x="338" y="-9.9" font-family="Helvetica,sans-Serif" font-size="12.00" fill="#000000">rank</text>
<polygon fill="#ffffff" stroke="transparent" points="376,-3.5 376,-22.5 429,-22.5 429,-3.5 376,-3.5"/>
<polygon fill="none" stroke="#000000" points="376,-3.5 376,-22.5 429,-22.5 429,-3.5 376,-3.5"/>
<text text-anchor="start" x="379" y="-9.9" font-family="Helvetica,sans-Serif" font-size="12.00" fill="#000000">float</text>
</g>
<!-- movies_directors&#45;&gt;movies -->
<g id="edge3" class="edge">
<title>movies_directors&#45;&gt;movies</title>
<path fill="none" stroke="#000000" d="M259.5,-152.4272C259.5,-128.8945 259.5,-102 259.5,-102 259.5,-102 316.8421,-102 316.8421,-102"/>
<polygon fill="#000000" stroke="#000000" points="316.8421,-105.5001 326.8421,-102 316.8421,-98.5001 316.8421,-105.5001"/>
</g>
<!-- movies_genres -->
<g id="node5" class="node">
<title>movies_genres</title>
<polygon fill="#e6e6fa" stroke="transparent" points="326,-194 326,-217 439,-217 439,-194 326,-194"/>
<polygon fill="none" stroke="#000000" points="326,-194 326,-217 439,-217 439,-194 326,-194"/>
<text text-anchor="start" x="332" y="-202.4" font-family="Helvetica,sans-Serif" font-weight="bold" font-size="12.00" fill="#000000">movies_genres</text>
<polygon fill="#ffffff" stroke="transparent" points="326,-175 326,-194 386,-194 386,-175 326,-175"/>
<polygon fill="none" stroke="#000000" points="326,-175 326,-194 386,-194 386,-175 326,-175"/>
<text text-anchor="start" x="329" y="-181.4" font-family="Helvetica,sans-Serif" font-size="12.00" fill="#000000">movie_id</text>
<polygon fill="#ffffff" stroke="transparent" points="386,-175 386,-194 439,-194 439,-175 386,-175"/>
<polygon fill="none" stroke="#000000" points="386,-175 386,-194 439,-194 439,-175 386,-175"/>
<text text-anchor="start" x="389" y="-181.4" font-family="Helvetica,sans-Serif" font-size="12.00" fill="#000000">int</text>
<polygon fill="#ffffff" stroke="transparent" points="326,-156 326,-175 386,-175 386,-156 326,-156"/>
<polygon fill="none" stroke="#000000" points="326,-156 326,-175 386,-175 386,-156 326,-156"/>
<text text-anchor="start" x="329" y="-162.4" font-family="Helvetica,sans-Serif" font-size="12.00" fill="#000000">genre</text>
<polygon fill="#ffffff" stroke="transparent" points="386,-156 386,-175 439,-175 439,-156 386,-156"/>
<polygon fill="none" stroke="#000000" points="386,-156 386,-175 439,-175 439,-156 386,-156"/>
<text text-anchor="start" x="389" y="-162.4" font-family="Helvetica,sans-Serif" font-size="12.00" fill="#000000">varchar</text>
</g>
<!-- movies_genres&#45;&gt;movies -->
<g id="edge4" class="edge">
<title>movies_genres&#45;&gt;movies</title>
<path fill="none" stroke="#000000" d="M363.6667,-152.2729C363.6667,-152.2729 363.6667,-117.203 363.6667,-117.203"/>
<polygon fill="#000000" stroke="#000000" points="367.1668,-117.2029 363.6667,-107.203 360.1668,-117.203 367.1668,-117.2029"/>
</g>
<!-- actors -->
<g id="node6" class="node">
<title>actors</title>
<polygon fill="#e6e6fa" stroke="transparent" points="468,-79.5 468,-102.5 591,-102.5 591,-79.5 468,-79.5"/>
<polygon fill="none" stroke="#000000" points="468,-79.5 468,-102.5 591,-102.5 591,-79.5 468,-79.5"/>
<text text-anchor="start" x="508" y="-87.9" font-family="Helvetica,sans-Serif" font-weight="bold" font-size="12.00" fill="#000000">actors</text>
<polygon fill="#ffffff" stroke="transparent" points="468,-60.5 468,-79.5 538,-79.5 538,-60.5 468,-60.5"/>
<polygon fill="none" stroke="#000000" points="468,-60.5 468,-79.5 538,-79.5 538,-60.5 468,-60.5"/>
<text text-anchor="start" x="471" y="-66.9" font-family="Helvetica,sans-Serif" font-size="12.00" fill="#000000">id</text>
<polygon fill="#ffffff" stroke="transparent" points="538,-60.5 538,-79.5 591,-79.5 591,-60.5 538,-60.5"/>
<polygon fill="none" stroke="#000000" points="538,-60.5 538,-79.5 591,-79.5 591,-60.5 538,-60.5"/>
<text text-anchor="start" x="541" y="-66.9" font-family="Helvetica,sans-Serif" font-size="12.00" fill="#000000">int</text>
<polygon fill="#ffffff" stroke="transparent" points="468,-41.5 468,-60.5 538,-60.5 538,-41.5 468,-41.5"/>
<polygon fill="none" stroke="#000000" points="468,-41.5 468,-60.5 538,-60.5 538,-41.5 468,-41.5"/>
<text text-anchor="start" x="471" y="-47.9" font-family="Helvetica,sans-Serif" font-size="12.00" fill="#000000">first_name</text>
<polygon fill="#ffffff" stroke="transparent" points="538,-41.5 538,-60.5 591,-60.5 591,-41.5 538,-41.5"/>
<polygon fill="none" stroke="#000000" points="538,-41.5 538,-60.5 591,-60.5 591,-41.5 538,-41.5"/>
<text text-anchor="start" x="541" y="-47.9" font-family="Helvetica,sans-Serif" font-size="12.00" fill="#000000">varchar</text>
<polygon fill="#ffffff" stroke="transparent" points="468,-22.5 468,-41.5 538,-41.5 538,-22.5 468,-22.5"/>
<polygon fill="none" stroke="#000000" points="468,-22.5 468,-41.5 538,-41.5 538,-22.5 468,-22.5"/>
<text text-anchor="start" x="471" y="-28.9" font-family="Helvetica,sans-Serif" font-size="12.00" fill="#000000">last_name</text>
<polygon fill="#ffffff" stroke="transparent" points="538,-22.5 538,-41.5 591,-41.5 591,-22.5 538,-22.5"/>
<polygon fill="none" stroke="#000000" points="538,-22.5 538,-41.5 591,-41.5 591,-22.5 538,-22.5"/>
<text text-anchor="start" x="541" y="-28.9" font-family="Helvetica,sans-Serif" font-size="12.00" fill="#000000">varchar</text>
<polygon fill="#ffffff" stroke="transparent" points="468,-3.5 468,-22.5 538,-22.5 538,-3.5 468,-3.5"/>
<polygon fill="none" stroke="#000000" points="468,-3.5 468,-22.5 538,-22.5 538,-3.5 468,-3.5"/>
<text text-anchor="start" x="471" y="-9.9" font-family="Helvetica,sans-Serif" font-size="12.00" fill="#000000">gender</text>
<polygon fill="#ffffff" stroke="transparent" points="538,-3.5 538,-22.5 591,-22.5 591,-3.5 538,-3.5"/>
<polygon fill="none" stroke="#000000" points="538,-3.5 538,-22.5 591,-22.5 591,-3.5 538,-3.5"/>
<text text-anchor="start" x="541" y="-9.9" font-family="Helvetica,sans-Serif" font-size="12.00" fill="#000000">char</text>
</g>
<!-- roles -->
<g id="node7" class="node">
<title>roles</title>
<polygon fill="#e6e6fa" stroke="transparent" points="473,-204 473,-227 586,-227 586,-204 473,-204"/>
<polygon fill="none" stroke="#000000" points="473,-204 473,-227 586,-227 586,-204 473,-204"/>
<text text-anchor="start" x="512.5" y="-212.4" font-family="Helvetica,sans-Serif" font-weight="bold" font-size="12.00" fill="#000000">roles</text>
<polygon fill="#ffffff" stroke="transparent" points="473,-185 473,-204 533,-204 533,-185 473,-185"/>
<polygon fill="none" stroke="#000000" points="473,-185 473,-204 533,-204 533,-185 473,-185"/>
<text text-anchor="start" x="476" y="-191.4" font-family="Helvetica,sans-Serif" font-size="12.00" fill="#000000">actor_id</text>
<polygon fill="#ffffff" stroke="transparent" points="533,-185 533,-204 586,-204 586,-185 533,-185"/>
<polygon fill="none" stroke="#000000" points="533,-185 533,-204 586,-204 586,-185 533,-185"/>
<text text-anchor="start" x="536" y="-191.4" font-family="Helvetica,sans-Serif" font-size="12.00" fill="#000000">int</text>
<polygon fill="#ffffff" stroke="transparent" points="473,-166 473,-185 533,-185 533,-166 473,-166"/>
<polygon fill="none" stroke="#000000" points="473,-166 473,-185 533,-185 533,-166 473,-166"/>
<text text-anchor="start" x="476" y="-172.4" font-family="Helvetica,sans-Serif" font-size="12.00" fill="#000000">movie_id</text>
<polygon fill="#ffffff" stroke="transparent" points="533,-166 533,-185 586,-185 586,-166 533,-166"/>
<polygon fill="none" stroke="#000000" points="533,-166 533,-185 586,-185 586,-166 533,-166"/>
<text text-anchor="start" x="536" y="-172.4" font-family="Helvetica,sans-Serif" font-size="12.00" fill="#000000">int</text>
<polygon fill="#ffffff" stroke="transparent" points="473,-147 473,-166 533,-166 533,-147 473,-147"/>
<polygon fill="none" stroke="#000000" points="473,-147 473,-166 533,-166 533,-147 473,-147"/>
<text text-anchor="start" x="476" y="-153.4" font-family="Helvetica,sans-Serif" font-size="12.00" fill="#000000">role</text>
<polygon fill="#ffffff" stroke="transparent" points="533,-147 533,-166 586,-166 586,-147 533,-147"/>
<polygon fill="none" stroke="#000000" points="533,-147 533,-166 586,-166 586,-147 533,-147"/>
<text text-anchor="start" x="536" y="-153.4" font-family="Helvetica,sans-Serif" font-size="12.00" fill="#000000">varchar</text>
</g>
<!-- roles&#45;&gt;movies -->
<g id="edge6" class="edge">
<title>roles&#45;&gt;movies</title>
<path fill="none" stroke="#000000" d="M464.2897,-147C432.2492,-147 400.3333,-147 400.3333,-147 400.3333,-147 400.3333,-117.0764 400.3333,-117.0764"/>
<polygon fill="#000000" stroke="#000000" points="403.8334,-117.0763 400.3333,-107.0764 396.8334,-117.0764 403.8334,-117.0763"/>
</g>
<!-- roles&#45;&gt;actors -->
<g id="edge5" class="edge">
<title>roles&#45;&gt;actors</title>
<path fill="none" stroke="#000000" d="M529,-142.9171C529,-142.9171 529,-117.3051 529,-117.3051"/>
<polygon fill="#000000" stroke="#000000" points="532.5001,-117.3051 529,-107.3051 525.5001,-117.3051 532.5001,-117.3051"/>
</g>
</g>
</svg>
